<?xml version="1.0" encoding="UTF-8" standalone="no"?>
<!-- Created with Bouml (http://bouml.free.fr/) -->
<!DOCTYPE svg PUBLIC "-//W3C//DTD SVG 1.1//EN" "http://www.w3.org/Graphics/SVG/1.1/DTD/svg11.dtd">
<svg width="386" height="528" version="1.1" xmlns="http://www.w3.org/2000/svg">
<g>
	<rect fill="#808080" stroke="none" stroke-opacity="1" x="288" y="20" width="2" height="120" />
	<rect fill="#808080" stroke="none" stroke-opacity="1" x="262" y="138" width="28" height="2" />
	<rect fill="#ffffc0" stroke="black" stroke-width="1" stroke-opacity="1" x="259" y="17" width="29" height="121" />
	<text font-family="Helvetica" font-size="4" fill="#000000" xml:space="preserve" text-anchor="middle" x="274" y="21">&lt;&lt;struct&gt;&gt;</text>
	<text font-family="Helvetica" font-size="4" fill="#000000" xml:space="preserve" font-weight="bold" text-anchor="middle" x="274" y="28">Particula</text>
	<line stroke="black" stroke-opacity="1" x1="259" y1="31" x2="288" y2="31" />
	<text font-family="Helvetica" font-size="4" fill="#000000" xml:space="preserve" x="260" y="35">angulo</text>
	<text font-family="Helvetica" font-size="4" fill="#000000" xml:space="preserve" x="260" y="42">distancia</text>
	<text font-family="Helvetica" font-size="4" fill="#000000" xml:space="preserve" x="260" y="49">tamanyo</text>
	<text font-family="Helvetica" font-size="4" fill="#000000" xml:space="preserve" x="260" y="56">duracion</text>
	<text font-family="Helvetica" font-size="4" fill="#000000" xml:space="preserve" x="260" y="63">imagen</text>
	<text font-family="Helvetica" font-size="4" fill="#000000" xml:space="preserve" x="260" y="70">color</text>
	<text font-family="Helvetica" font-size="4" fill="#000000" xml:space="preserve" x="260" y="77">pasoActual</text>
	<text font-family="Helvetica" font-size="4" fill="#000000" xml:space="preserve" x="260" y="84">posX</text>
	<text font-family="Helvetica" font-size="4" fill="#000000" xml:space="preserve" x="260" y="91">posY</text>
	<text font-family="Helvetica" font-size="4" fill="#000000" xml:space="preserve" x="260" y="98">posTemp</text>
	<text font-family="Helvetica" font-size="4" fill="#000000" xml:space="preserve" x="260" y="105">coefTam</text>
	<line stroke="black" stroke-opacity="1" x1="259" y1="108" x2="288" y2="108" />
	<text font-family="Helvetica" font-size="4" fill="#000000" xml:space="preserve" x="260" y="112">Particula()</text>
	<text font-family="Helvetica" font-size="4" fill="#000000" xml:space="preserve" x="260" y="119">update()</text>
	<text font-family="Helvetica" font-size="4" fill="#000000" xml:space="preserve" x="260" y="126">draw()</text>
	<text font-family="Helvetica" font-size="4" fill="#000000" xml:space="preserve" x="260" y="133">estado()</text>
</g>
<g>
	<rect fill="#808080" stroke="none" stroke-opacity="1" x="73" y="25" width="2" height="92" />
	<rect fill="#808080" stroke="none" stroke-opacity="1" x="17" y="115" width="58" height="2" />
	<rect fill="#ffffc0" stroke="black" stroke-width="1" stroke-opacity="1" x="14" y="22" width="59" height="93" />
	<text font-family="Helvetica" font-size="4" fill="#000000" xml:space="preserve" font-weight="bold" text-anchor="middle" x="44" y="26">Juego</text>
	<line stroke="black" stroke-opacity="1" x1="14" y1="29" x2="73" y2="29" />
	<text font-family="Helvetica" font-size="4" fill="#000000" xml:space="preserve" x="15" y="33">estadoCadena</text>
	<text font-family="Helvetica" font-size="4" fill="#000000" xml:space="preserve" x="15" y="40">cambiandoEstado</text>
	<text font-family="Helvetica" font-size="4" fill="#000000" xml:space="preserve" x="15" y="47">siguienteEstado</text>
	<text font-family="Helvetica" font-size="4" fill="#000000" xml:space="preserve" x="15" y="54">cursor</text>
	<text font-family="Helvetica" font-size="4" fill="#000000" xml:space="preserve" x="15" y="61">fondoComun</text>
	<line stroke="black" stroke-opacity="1" x1="14" y1="64" x2="73" y2="64" />
	<text font-family="Helvetica" font-size="4" fill="#000000" xml:space="preserve" x="15" y="68">Juego()</text>
	<text font-family="Helvetica" font-size="4" fill="#000000" xml:space="preserve" x="15" y="75">update()</text>
	<text font-family="Helvetica" font-size="4" fill="#000000" xml:space="preserve" x="15" y="82">draw()</text>
	<text font-family="Helvetica" font-size="4" fill="#000000" xml:space="preserve" x="15" y="89">cambiarEstado()</text>
	<text font-family="Helvetica" font-size="4" fill="#000000" xml:space="preserve" x="15" y="96">buttonDown()</text>
	<text font-family="Helvetica" font-size="4" fill="#000000" xml:space="preserve" x="15" y="103">~Juego()</text>
	<text font-family="Helvetica" font-size="4" fill="#000000" xml:space="preserve" x="15" y="110">realizarCambioEstado()</text>
</g>
<g>
	<rect fill="#808080" stroke="none" stroke-opacity="1" x="140" y="106" width="2" height="24" />
	<rect fill="#808080" stroke="none" stroke-opacity="1" x="98" y="128" width="44" height="2" />
	<rect fill="#ffffc0" stroke="black" stroke-width="1" stroke-opacity="1" x="95" y="103" width="45" height="25" />
	<text font-family="Helvetica" font-size="4" fill="#000000" xml:space="preserve" font-weight="bold" text-anchor="middle" x="118" y="107">MarcadorPuntos</text>
	<line stroke="black" stroke-opacity="1" x1="95" y1="110" x2="140" y2="110" />
	<line stroke="black" stroke-opacity="1" x1="95" y1="112" x2="140" y2="112" />
	<text font-family="Helvetica" font-size="4" fill="#000000" xml:space="preserve" x="96" y="116">MarcadorPuntos()</text>
	<text font-family="Helvetica" font-size="4" fill="#000000" xml:space="preserve" x="96" y="123">draw()</text>
</g>
<g>
	<rect fill="#808080" stroke="none" stroke-opacity="1" x="357" y="461" width="2" height="32" />
	<rect fill="#808080" stroke="none" stroke-opacity="1" x="331" y="491" width="28" height="2" />
	<rect fill="#ffffc0" stroke="black" stroke-width="1" stroke-opacity="1" x="328" y="458" width="29" height="33" />
	<text font-family="Helvetica" font-size="4" fill="#000000" xml:space="preserve" text-anchor="middle" x="343" y="462">&lt;&lt;struct&gt;&gt;</text>
	<text font-family="Helvetica" font-size="4" fill="#000000" xml:space="preserve" font-weight="bold" text-anchor="middle" x="343" y="469">NotaFinal</text>
	<line stroke="black" stroke-opacity="1" x1="328" y1="472" x2="357" y2="472" />
	<line stroke="black" stroke-opacity="1" x1="328" y1="474" x2="357" y2="474" />
	<text font-family="Helvetica" font-size="4" fill="#000000" xml:space="preserve" x="329" y="478">NotaFinal()</text>
	<text font-family="Helvetica" font-size="4" fill="#000000" xml:space="preserve" x="329" y="485">draw()</text>
</g>
<g>
	<rect fill="#808080" stroke="none" stroke-opacity="1" x="187" y="16" width="2" height="52" />
	<rect fill="#808080" stroke="none" stroke-opacity="1" x="155" y="66" width="34" height="2" />
	<rect fill="#ffffc0" stroke="black" stroke-width="1" stroke-opacity="1" x="152" y="13" width="35" height="53" />
	<text font-family="Helvetica" font-size="4" fill="#000000" xml:space="preserve" font-weight="bold" font-style="italic" text-anchor="middle" x="170" y="17">Estado</text>
	<line stroke="black" stroke-opacity="1" x1="152" y1="20" x2="187" y2="20" />
	<line stroke="black" stroke-opacity="1" x1="152" y1="22" x2="187" y2="22" />
	<text font-family="Helvetica" font-size="4" fill="#000000" xml:space="preserve" x="153" y="26">Estado()</text>
	<text font-family="Helvetica" font-size="4" fill="#000000" xml:space="preserve" x="153" y="33">lanzar()</text>
	<text font-family="Helvetica" font-size="4" fill="#000000" xml:space="preserve" font-style="italic" x="153" y="40">update()</text>
	<text font-family="Helvetica" font-size="4" fill="#000000" xml:space="preserve" font-style="italic" x="153" y="47">draw()</text>
	<text font-family="Helvetica" font-size="4" fill="#000000" xml:space="preserve" x="153" y="54">buttonDown()</text>
	<text font-family="Helvetica" font-size="4" fill="#000000" xml:space="preserve" x="153" y="61">~Estado()</text>
</g>
<g>
	<line stroke="black" stroke-opacity="1" x1="76" y1="59" x2="82" y2="64" />
	<line stroke="black" stroke-opacity="1" x1="76" y1="59" x2="81" y2="52" />
	<line stroke="black" stroke-opacity="1" x1="151" y1="54" x2="76" y2="59" />
</g>
<g>
	<line stroke="black" stroke-opacity="1" x1="151" y1="41" x2="144" y2="35" />
	<line stroke="black" stroke-opacity="1" x1="151" y1="41" x2="145" y2="47" />
	<line stroke="black" stroke-opacity="1" x1="76" y1="43" x2="151" y2="41" />
	<polygon fill="#000000" stroke="black" stroke-opacity="1" points="76,43 81,36 87,42 82,48" />
</g>
<g>
	<text font-family="Helvetica" font-size="4" fill="#000000" xml:space="preserve" x="94" y="43">&lt;&lt;:scoped_ptr&gt;&gt;</text>
</g>
<g>
	<rect fill="#808080" stroke="none" stroke-opacity="1" x="225" y="116" width="2" height="92" />
	<rect fill="#808080" stroke="none" stroke-opacity="1" x="163" y="206" width="64" height="2" />
	<rect fill="#ffffc0" stroke="black" stroke-width="1" stroke-opacity="1" x="160" y="113" width="65" height="93" />
	<text font-family="Helvetica" font-size="4" fill="#000000" xml:space="preserve" font-weight="bold" text-anchor="middle" x="193" y="117">EstadoMenuCanciones</text>
	<line stroke="black" stroke-opacity="1" x1="160" y1="120" x2="225" y2="120" />
	<text font-family="Helvetica" font-size="4" fill="#000000" xml:space="preserve" x="161" y="124">cancionCargada</text>
	<text font-family="Helvetica" font-size="4" fill="#000000" xml:space="preserve" x="161" y="131">conjuntoCanciones</text>
	<text font-family="Helvetica" font-size="4" fill="#000000" xml:space="preserve" x="161" y="138">cancionSeleccionada</text>
	<line stroke="black" stroke-opacity="1" x1="160" y1="141" x2="225" y2="141" />
	<text font-family="Helvetica" font-size="4" fill="#000000" xml:space="preserve" x="161" y="145">EstadoMenuCanciones()</text>
	<text font-family="Helvetica" font-size="4" fill="#000000" xml:space="preserve" x="161" y="152">update()</text>
	<text font-family="Helvetica" font-size="4" fill="#000000" xml:space="preserve" x="161" y="159">draw()</text>
	<text font-family="Helvetica" font-size="4" fill="#000000" xml:space="preserve" x="161" y="166">buttonDown()</text>
	<text font-family="Helvetica" font-size="4" fill="#000000" xml:space="preserve" x="161" y="173">~EstadoMenuCanciones()</text>
	<text font-family="Helvetica" font-size="4" fill="#000000" xml:space="preserve" x="161" y="180">listarCanciones()</text>
	<text font-family="Helvetica" font-size="4" fill="#000000" xml:space="preserve" x="161" y="187">listaSiguiente()</text>
	<text font-family="Helvetica" font-size="4" fill="#000000" xml:space="preserve" x="161" y="194">listaAnterior()</text>
	<text font-family="Helvetica" font-size="4" fill="#000000" xml:space="preserve" x="161" y="201">invertirAnimaciones()</text>
</g>
<g>
	<line stroke="black" stroke-opacity="1" x1="184" y1="112" x2="176" y2="74" />
	<line stroke="black" stroke-opacity="1" x1="175" y1="69" x2="170" y2="76" />
	<line stroke="black" stroke-opacity="1" x1="175" y1="69" x2="182" y2="73" />
	<line stroke="black" stroke-opacity="1" x1="170" y1="76" x2="182" y2="73" />
</g>
<g>
	<rect fill="#808080" stroke="none" stroke-opacity="1" x="158" y="262" width="2" height="64" />
	<rect fill="#808080" stroke="none" stroke-opacity="1" x="120" y="324" width="40" height="2" />
	<rect fill="#ffffc0" stroke="black" stroke-width="1" stroke-opacity="1" x="117" y="259" width="41" height="65" />
	<text font-family="Helvetica" font-size="4" fill="#000000" xml:space="preserve" font-weight="bold" text-anchor="middle" x="138" y="263">Analizador</text>
	<line stroke="black" stroke-opacity="1" x1="117" y1="266" x2="158" y2="266" />
	<text font-family="Helvetica" font-size="4" fill="#000000" xml:space="preserve" x="118" y="270">hilo</text>
	<text font-family="Helvetica" font-size="4" fill="#000000" xml:space="preserve" x="118" y="277">detenido</text>
	<line stroke="black" stroke-opacity="1" x1="117" y1="280" x2="158" y2="280" />
	<text font-family="Helvetica" font-size="4" fill="#000000" xml:space="preserve" x="118" y="284">Analizador()</text>
	<text font-family="Helvetica" font-size="4" fill="#000000" xml:space="preserve" x="118" y="291">iniciar()</text>
	<text font-family="Helvetica" font-size="4" fill="#000000" xml:space="preserve" x="118" y="298">detener()</text>
	<text font-family="Helvetica" font-size="4" fill="#000000" xml:space="preserve" x="118" y="305">notaActual()</text>
	<text font-family="Helvetica" font-size="4" fill="#000000" xml:space="preserve" x="118" y="312">volumenActual()</text>
	<text font-family="Helvetica" font-size="4" fill="#000000" xml:space="preserve" x="118" y="319">asociarNota()</text>
</g>
<g>
	<rect fill="#808080" stroke="none" stroke-opacity="1" x="257" y="230" width="2" height="42" />
	<rect fill="#808080" stroke="none" stroke-opacity="1" x="207" y="270" width="52" height="2" />
	<rect fill="#ffffc0" stroke="black" stroke-width="1" stroke-opacity="1" x="204" y="227" width="53" height="43" />
	<text font-family="Helvetica" font-size="4" fill="#000000" xml:space="preserve" font-weight="bold" text-anchor="middle" x="231" y="231">lectorConfiguracion</text>
	<line stroke="black" stroke-opacity="1" x1="204" y1="234" x2="257" y2="234" />
	<text font-family="Helvetica" font-size="4" fill="#000000" xml:space="preserve" x="205" y="238">limiteSonido</text>
	<text font-family="Helvetica" font-size="4" fill="#000000" xml:space="preserve" x="205" y="245">arbol</text>
	<line stroke="black" stroke-opacity="1" x1="204" y1="248" x2="257" y2="248" />
	<text font-family="Helvetica" font-size="4" fill="#000000" xml:space="preserve" x="205" y="252">lectorConfiguracion()</text>
	<text font-family="Helvetica" font-size="4" fill="#000000" xml:space="preserve" x="205" y="259">sonidoLimite()</text>
	<text font-family="Helvetica" font-size="4" fill="#000000" xml:space="preserve" x="205" y="266">setSonidoLimite()</text>
</g>
<g>
	<line stroke="black" stroke-opacity="1" x1="203" y1="262" x2="195" y2="259" />
	<line stroke="black" stroke-opacity="1" x1="203" y1="262" x2="200" y2="269" />
	<line stroke="black" stroke-opacity="1" x1="161" y1="282" x2="203" y2="262" />
	<polygon fill="#000000" stroke="black" stroke-opacity="1" points="161,282 163,274 171,276 168,284" />
</g>
<g>
	<text font-family="Helvetica" font-size="4" fill="#000000" xml:space="preserve" x="248" y="296">proxy</text>
</g>
<g>
	<text font-family="Helvetica" font-size="4" fill="#000000" xml:space="preserve" x="330" y="370">miBuffer</text>
</g>
<g>
	<text font-family="Helvetica" font-size="4" fill="#000000" xml:space="preserve" x="109" y="376">notaLeida</text>
</g>
<g>
	<text font-family="Helvetica" font-size="4" fill="#000000" xml:space="preserve" x="126" y="364">notas</text>
</g>
<g>
	<text font-family="Helvetica" font-size="4" fill="#000000" xml:space="preserve" x="71" y="165">&lt;&lt;:scoped_ptr&gt;&gt;</text>
</g>
<g>
	<text font-family="Helvetica" font-size="4" fill="#000000" xml:space="preserve" x="117" y="138">marcadorFinal</text>
</g>
<g>
	<text font-family="Helvetica" font-size="4" fill="#000000" xml:space="preserve" x="111" y="36">estadoActual</text>
</g>
<g>
	<text font-family="Helvetica" font-size="4" fill="#000000" xml:space="preserve" x="165" y="253">lectorConfig</text>
</g>
<g>
	<text font-family="Helvetica" font-size="4" fill="#000000" xml:space="preserve" x="343" y="142">sistemaPartc</text>
</g>
<g>
	<text font-family="Helvetica" font-size="4" fill="#000000" xml:space="preserve" x="84" y="217">cancion</text>
</g>
<g>
	<text font-family="Helvetica" font-size="4" fill="#000000" xml:space="preserve" x="109" y="376">notaEnLinea</text>
</g>
<g>
	<text font-family="Helvetica" font-size="4" fill="#000000" xml:space="preserve" x="86" y="54">padre</text>
</g>
<g>
	<text font-family="Helvetica" font-size="4" fill="#000000" xml:space="preserve" x="202" y="452">figura</text>
</g>
<g>
	<text font-family="Helvetica" font-size="4" fill="#000000" xml:space="preserve" x="81" y="262">analizador</text>
</g>
<g>
	<text font-family="Helvetica" font-size="4" fill="#000000" xml:space="preserve" x="141" y="412">altura</text>
</g>
<g>
	<rect fill="#808080" stroke="none" stroke-opacity="1" x="322" y="256" width="2" height="92" />
	<rect fill="#808080" stroke="none" stroke-opacity="1" x="276" y="346" width="48" height="2" />
	<rect fill="#ffffc0" stroke="black" stroke-width="1" stroke-opacity="1" x="273" y="253" width="49" height="93" />
	<text font-family="Helvetica" font-size="4" fill="#000000" xml:space="preserve" font-weight="bold" text-anchor="middle" x="298" y="257">AnalizadorProxy</text>
	<line stroke="black" stroke-opacity="1" x1="273" y1="260" x2="322" y2="260" />
	<text font-family="Helvetica" font-size="4" fill="#000000" xml:space="preserve" x="274" y="264">sIn</text>
	<text font-family="Helvetica" font-size="4" fill="#000000" xml:space="preserve" x="274" y="271">int_to_hz</text>
	<text font-family="Helvetica" font-size="4" fill="#000000" xml:space="preserve" x="274" y="278">hz_to_int</text>
	<text font-family="Helvetica" font-size="4" fill="#000000" xml:space="preserve" x="274" y="285">iniciado</text>
	<text font-family="Helvetica" font-size="4" fill="#000000" xml:space="preserve" x="274" y="292">salir</text>
	<line stroke="black" stroke-opacity="1" x1="273" y1="295" x2="322" y2="295" />
	<text font-family="Helvetica" font-size="4" fill="#000000" xml:space="preserve" x="274" y="299">AnalizadorProxy()</text>
	<text font-family="Helvetica" font-size="4" fill="#000000" xml:space="preserve" x="274" y="306">AnalizadorProxy()</text>
	<text font-family="Helvetica" font-size="4" fill="#000000" xml:space="preserve" x="274" y="313">notaActual()</text>
	<text font-family="Helvetica" font-size="4" fill="#000000" xml:space="preserve" x="274" y="320">operator ()()</text>
	<text font-family="Helvetica" font-size="4" fill="#000000" xml:space="preserve" x="274" y="327">lanzar()</text>
	<text font-family="Helvetica" font-size="4" fill="#000000" xml:space="preserve" x="274" y="334">detener()</text>
	<text font-family="Helvetica" font-size="4" fill="#000000" xml:space="preserve" x="274" y="341">~AnalizadorProxy()</text>
</g>
<g>
	<rect fill="#808080" stroke="none" stroke-opacity="1" x="128" y="373" width="2" height="88" />
	<rect fill="#808080" stroke="none" stroke-opacity="1" x="104" y="459" width="26" height="2" />
	<rect fill="#ffffc0" stroke="black" stroke-width="1" stroke-opacity="1" x="101" y="370" width="27" height="89" />
	<text font-family="Helvetica" font-size="4" fill="#000000" xml:space="preserve" text-anchor="middle" x="115" y="374">&lt;&lt;enum&gt;&gt;</text>
	<text font-family="Helvetica" font-size="4" fill="#000000" xml:space="preserve" font-weight="bold" text-anchor="middle" x="115" y="381">t_altura</text>
	<line stroke="black" stroke-opacity="1" x1="101" y1="384" x2="128" y2="384" />
	<text font-family="Helvetica" font-size="4" fill="#000000" xml:space="preserve" x="102" y="388">Silencio</text>
	<text font-family="Helvetica" font-size="4" fill="#000000" xml:space="preserve" x="102" y="395">Do5</text>
	<text font-family="Helvetica" font-size="4" fill="#000000" xml:space="preserve" x="102" y="402">Re5</text>
	<text font-family="Helvetica" font-size="4" fill="#000000" xml:space="preserve" x="102" y="409">Mi5</text>
	<text font-family="Helvetica" font-size="4" fill="#000000" xml:space="preserve" x="102" y="416">Fa5</text>
	<text font-family="Helvetica" font-size="4" fill="#000000" xml:space="preserve" x="102" y="423">Sol5</text>
	<text font-family="Helvetica" font-size="4" fill="#000000" xml:space="preserve" x="102" y="430">La5</text>
	<text font-family="Helvetica" font-size="4" fill="#000000" xml:space="preserve" x="102" y="437">Si5</text>
	<text font-family="Helvetica" font-size="4" fill="#000000" xml:space="preserve" x="102" y="444">Do6</text>
	<text font-family="Helvetica" font-size="4" fill="#000000" xml:space="preserve" x="102" y="451">Re6</text>
	<line stroke="black" stroke-opacity="1" x1="101" y1="454" x2="128" y2="454" />
</g>
<g>
	<line stroke="black" stroke-opacity="1" x1="272" y1="302" x2="265" y2="296" />
	<line stroke="black" stroke-opacity="1" x1="272" y1="302" x2="266" y2="308" />
	<line stroke="black" stroke-opacity="1" x1="161" y1="315" x2="272" y2="302" />
	<polygon fill="#000000" stroke="black" stroke-opacity="1" points="161,315 166,308 172,313 167,320" />
</g>
<g>
	<text font-family="Helvetica" font-size="4" fill="#000000" xml:space="preserve" x="155" y="296">&lt;&lt;:map&gt;&gt;</text>
</g>
<g>
	<line stroke="black" stroke-opacity="1" x1="115" y1="369" x2="122" y2="365" />
	<line stroke="black" stroke-opacity="1" x1="115" y1="369" x2="111" y2="361" />
	<line stroke="black" stroke-opacity="1" x1="131" y1="327" x2="115" y2="369" />
	<polygon fill="#000000" stroke="black" stroke-opacity="1" points="131,327 134,334 126,338 123,330" />
</g>
<g>
	<rect fill="#808080" stroke="none" stroke-opacity="1" x="333" y="379" width="2" height="50" />
	<rect fill="#808080" stroke="none" stroke-opacity="1" x="309" y="427" width="26" height="2" />
	<rect fill="#ffffc0" stroke="black" stroke-width="1" stroke-opacity="1" x="306" y="376" width="27" height="51" />
	<text font-family="Helvetica" font-size="4" fill="#000000" xml:space="preserve" font-weight="bold" text-anchor="middle" x="320" y="380">tipoBuffer</text>
	<line stroke="black" stroke-opacity="1" x1="306" y1="383" x2="333" y2="383" />
	<text font-family="Helvetica" font-size="4" fill="#000000" xml:space="preserve" x="307" y="387">pos</text>
	<text font-family="Helvetica" font-size="4" fill="#000000" xml:space="preserve" x="307" y="394">in</text>
	<text font-family="Helvetica" font-size="4" fill="#000000" xml:space="preserve" x="307" y="401">out</text>
	<text font-family="Helvetica" font-size="4" fill="#000000" xml:space="preserve" x="307" y="408">lastVolume</text>
	<text font-family="Helvetica" font-size="4" fill="#000000" xml:space="preserve" x="307" y="415">mayores</text>
	<line stroke="black" stroke-opacity="1" x1="306" y1="418" x2="333" y2="418" />
	<text font-family="Helvetica" font-size="4" fill="#000000" xml:space="preserve" x="307" y="422">tipoBuffer()</text>
</g>
<g>
	<rect fill="#808080" stroke="none" stroke-opacity="1" x="71" y="150" width="2" height="196" />
	<rect fill="#808080" stroke="none" stroke-opacity="1" x="19" y="344" width="54" height="2" />
	<rect fill="#ffffc0" stroke="black" stroke-width="1" stroke-opacity="1" x="16" y="147" width="55" height="197" />
	<text font-family="Helvetica" font-size="4" fill="#000000" xml:space="preserve" font-weight="bold" text-anchor="middle" x="44" y="151">Cancion</text>
	<line stroke="black" stroke-opacity="1" x1="16" y1="154" x2="71" y2="154" />
	<text font-family="Helvetica" font-size="4" fill="#000000" xml:space="preserve" x="17" y="158">bpm</text>
	<text font-family="Helvetica" font-size="4" fill="#000000" xml:space="preserve" x="17" y="165">milisegundosPorPulso</text>
	<text font-family="Helvetica" font-size="4" fill="#000000" xml:space="preserve" x="17" y="172">tituloCancion</text>
	<text font-family="Helvetica" font-size="4" fill="#000000" xml:space="preserve" x="17" y="179">descripcionCancion</text>
	<text font-family="Helvetica" font-size="4" fill="#000000" xml:space="preserve" x="17" y="186">distanciaPulso</text>
	<text font-family="Helvetica" font-size="4" fill="#000000" xml:space="preserve" x="17" y="193">margenIzquierdo</text>
	<text font-family="Helvetica" font-size="4" fill="#000000" xml:space="preserve" x="17" y="200">esperaInicial</text>
	<text font-family="Helvetica" font-size="4" fill="#000000" xml:space="preserve" x="17" y="207">lanzado</text>
	<text font-family="Helvetica" font-size="4" fill="#000000" xml:space="preserve" x="17" y="214">capturandoPuntos</text>
	<text font-family="Helvetica" font-size="4" fill="#000000" xml:space="preserve" x="17" y="221">duracionCancion</text>
	<text font-family="Helvetica" font-size="4" fill="#000000" xml:space="preserve" x="17" y="228">incrementoDePuntos</text>
	<text font-family="Helvetica" font-size="4" fill="#000000" xml:space="preserve" x="17" y="235">puntos</text>
	<text font-family="Helvetica" font-size="4" fill="#000000" xml:space="preserve" x="17" y="242">maximoPuntos</text>
	<text font-family="Helvetica" font-size="4" fill="#000000" xml:space="preserve" x="17" y="249">conjNotas</text>
	<text font-family="Helvetica" font-size="4" fill="#000000" xml:space="preserve" x="17" y="256">numeroInicialNotas</text>
	<text font-family="Helvetica" font-size="4" fill="#000000" xml:space="preserve" x="17" y="263">g</text>
	<text font-family="Helvetica" font-size="4" fill="#000000" xml:space="preserve" x="17" y="270">ruta</text>
	<text font-family="Helvetica" font-size="4" fill="#000000" xml:space="preserve" x="17" y="277">estadoActual</text>
	<text font-family="Helvetica" font-size="4" fill="#000000" xml:space="preserve" x="17" y="284">resalteNotaActual</text>
	<text font-family="Helvetica" font-size="4" fill="#000000" xml:space="preserve" x="17" y="291">barraProgreso</text>
	<line stroke="black" stroke-opacity="1" x1="16" y1="294" x2="71" y2="294" />
	<text font-family="Helvetica" font-size="4" fill="#000000" xml:space="preserve" x="17" y="298">Cancion()</text>
	<text font-family="Helvetica" font-size="4" fill="#000000" xml:space="preserve" x="17" y="305">lanzar()</text>
	<text font-family="Helvetica" font-size="4" fill="#000000" xml:space="preserve" x="17" y="312">update()</text>
	<text font-family="Helvetica" font-size="4" fill="#000000" xml:space="preserve" x="17" y="319">draw()</text>
	<text font-family="Helvetica" font-size="4" fill="#000000" xml:space="preserve" x="17" y="326">buttonDown()</text>
	<text font-family="Helvetica" font-size="4" fill="#000000" xml:space="preserve" x="17" y="333">~Cancion()</text>
	<text font-family="Helvetica" font-size="4" fill="#000000" xml:space="preserve" x="17" y="340">parsear()</text>
</g>
<g>
	<line stroke="black" stroke-opacity="1" x1="116" y1="266" x2="110" y2="259" />
	<line stroke="black" stroke-opacity="1" x1="116" y1="266" x2="109" y2="271" />
	<line stroke="black" stroke-opacity="1" x1="74" y1="261" x2="116" y2="266" />
	<polygon fill="#000000" stroke="black" stroke-opacity="1" points="74,261 80,255 85,262 79,267" />
</g>
<g>
	<line stroke="black" stroke-opacity="1" x1="100" y1="381" x2="103" y2="373" />
	<line stroke="black" stroke-opacity="1" x1="100" y1="381" x2="92" y2="377" />
	<line stroke="black" stroke-opacity="1" x1="74" y1="319" x2="100" y2="381" />
	<polygon fill="#000000" stroke="black" stroke-opacity="1" points="74,319 81,322 78,330 70,326" />
</g>
<g>
	<line stroke="black" stroke-opacity="1" x1="320" y1="375" x2="326" y2="369" />
	<line stroke="black" stroke-opacity="1" x1="320" y1="375" x2="314" y2="369" />
	<line stroke="black" stroke-opacity="1" x1="320" y1="349" x2="320" y2="375" />
</g>
<g>
	<line stroke="black" stroke-opacity="1" x1="74" y1="227" x2="82" y2="229" />
	<line stroke="black" stroke-opacity="1" x1="74" y1="227" x2="76" y2="218" />
	<line stroke="black" stroke-opacity="1" x1="159" y1="179" x2="74" y2="227" />
	<polygon fill="#000000" stroke="black" stroke-opacity="1" points="159,179 156,187 148,184 150,176" />
</g>
<g>
	<line stroke="black" stroke-opacity="1" x1="100" y1="381" x2="103" y2="373" />
	<line stroke="black" stroke-opacity="1" x1="100" y1="381" x2="92" y2="377" />
	<line stroke="black" stroke-opacity="1" x1="74" y1="319" x2="100" y2="381" />
	<polygon fill="#000000" stroke="black" stroke-opacity="1" points="74,319 81,322 78,330 70,326" />
</g>
<g>
	<line stroke="black" stroke-opacity="1" x1="74" y1="192" x2="108" y2="131" />
	<polygon fill="#000000" stroke="black" stroke-opacity="1" points="74,192 71,183 79,181 82,189" />
</g>
<g>
	<line stroke="black" stroke-opacity="1" x1="108" y1="131" x2="99" y2="133" />
	<line stroke="black" stroke-opacity="1" x1="108" y1="131" x2="110" y2="139" />
	<line stroke="black" stroke-opacity="1" x1="74" y1="192" x2="108" y2="131" />
	<polygon fill="#000000" stroke="black" stroke-opacity="1" points="74,192 71,183 79,181 82,189" />
</g>
<g>
	<text font-family="Helvetica" font-size="4" fill="#000000" xml:space="preserve" x="96" y="206">&lt;&lt;:scoped_ptr&gt;&gt;</text>
</g>
<g>
	<rect fill="#808080" stroke="none" stroke-opacity="1" x="263" y="345" width="2" height="170" />
	<rect fill="#808080" stroke="none" stroke-opacity="1" x="217" y="513" width="48" height="2" />
	<rect fill="#ffffc0" stroke="black" stroke-width="1" stroke-opacity="1" x="214" y="342" width="49" height="171" />
	<text font-family="Helvetica" font-size="4" fill="#000000" xml:space="preserve" text-anchor="middle" x="239" y="346">&lt;&lt;struct&gt;&gt;</text>
	<text font-family="Helvetica" font-size="4" fill="#000000" xml:space="preserve" font-weight="bold" text-anchor="middle" x="239" y="353">Nota</text>
	<line stroke="black" stroke-opacity="1" x1="214" y1="356" x2="263" y2="356" />
	<text font-family="Helvetica" font-size="4" fill="#000000" xml:space="preserve" x="215" y="360">imagen</text>
	<text font-family="Helvetica" font-size="4" fill="#000000" xml:space="preserve" text-decoration="underline" x="215" y="367">imgPuntillo</text>
	<text font-family="Helvetica" font-size="4" fill="#000000" xml:space="preserve" text-decoration="underline" x="215" y="374">imgFinal</text>
	<text font-family="Helvetica" font-size="4" fill="#000000" xml:space="preserve" text-decoration="underline" x="215" y="381">silRedonda</text>
	<text font-family="Helvetica" font-size="4" fill="#000000" xml:space="preserve" text-decoration="underline" x="215" y="388">silBlanca</text>
	<text font-family="Helvetica" font-size="4" fill="#000000" xml:space="preserve" text-decoration="underline" x="215" y="395">silNegra</text>
	<text font-family="Helvetica" font-size="4" fill="#000000" xml:space="preserve" text-decoration="underline" x="215" y="402">silCorchea</text>
	<text font-family="Helvetica" font-size="4" fill="#000000" xml:space="preserve" text-decoration="underline" x="215" y="409">figRedonda</text>
	<text font-family="Helvetica" font-size="4" fill="#000000" xml:space="preserve" text-decoration="underline" x="215" y="416">figBlanca</text>
	<text font-family="Helvetica" font-size="4" fill="#000000" xml:space="preserve" text-decoration="underline" x="215" y="423">figNegra</text>
	<text font-family="Helvetica" font-size="4" fill="#000000" xml:space="preserve" text-decoration="underline" x="215" y="430">figCorchea</text>
	<text font-family="Helvetica" font-size="4" fill="#000000" xml:space="preserve" text-decoration="underline" x="215" y="437">figBlancaInv</text>
	<text font-family="Helvetica" font-size="4" fill="#000000" xml:space="preserve" text-decoration="underline" x="215" y="444">figNegraInv</text>
	<text font-family="Helvetica" font-size="4" fill="#000000" xml:space="preserve" text-decoration="underline" x="215" y="451">figCorcheaInv</text>
	<text font-family="Helvetica" font-size="4" fill="#000000" xml:space="preserve" x="215" y="458">x</text>
	<text font-family="Helvetica" font-size="4" fill="#000000" xml:space="preserve" x="215" y="465">tiemposDelante</text>
	<line stroke="black" stroke-opacity="1" x1="214" y1="468" x2="263" y2="468" />
	<text font-family="Helvetica" font-size="4" fill="#000000" xml:space="preserve" text-decoration="underline" x="215" y="472">initImagenes()</text>
	<text font-family="Helvetica" font-size="4" fill="#000000" xml:space="preserve" x="215" y="479">Nota()</text>
	<text font-family="Helvetica" font-size="4" fill="#000000" xml:space="preserve" text-decoration="underline" x="215" y="486">devolverDuracion()</text>
	<text font-family="Helvetica" font-size="4" fill="#000000" xml:space="preserve" text-decoration="underline" x="215" y="493">devolverAltura()</text>
	<text font-family="Helvetica" font-size="4" fill="#000000" xml:space="preserve" x="215" y="500">updatePos()</text>
	<text font-family="Helvetica" font-size="4" fill="#000000" xml:space="preserve" x="215" y="507">draw()</text>
</g>
<g>
	<rect fill="#808080" stroke="none" stroke-opacity="1" x="71" y="393" width="2" height="70" />
	<rect fill="#808080" stroke="none" stroke-opacity="1" x="29" y="461" width="44" height="2" />
	<rect fill="#ffffc0" stroke="black" stroke-width="1" stroke-opacity="1" x="26" y="390" width="45" height="71" />
	<text font-family="Helvetica" font-size="4" fill="#000000" xml:space="preserve" font-weight="bold" text-anchor="middle" x="49" y="394">Crono</text>
	<line stroke="black" stroke-opacity="1" x1="26" y1="397" x2="71" y2="397" />
	<text font-family="Helvetica" font-size="4" fill="#000000" xml:space="preserve" x="27" y="401">ultimoTiempoLeido</text>
	<text font-family="Helvetica" font-size="4" fill="#000000" xml:space="preserve" x="27" y="408">tiempoAcumulado</text>
	<text font-family="Helvetica" font-size="4" fill="#000000" xml:space="preserve" x="27" y="415">corriendo</text>
	<line stroke="black" stroke-opacity="1" x1="26" y1="418" x2="71" y2="418" />
	<text font-family="Helvetica" font-size="4" fill="#000000" xml:space="preserve" x="27" y="422">Crono()</text>
	<text font-family="Helvetica" font-size="4" fill="#000000" xml:space="preserve" x="27" y="429">pause()</text>
	<text font-family="Helvetica" font-size="4" fill="#000000" xml:space="preserve" x="27" y="436">resume()</text>
	<text font-family="Helvetica" font-size="4" fill="#000000" xml:space="preserve" x="27" y="443">restart()</text>
	<text font-family="Helvetica" font-size="4" fill="#000000" xml:space="preserve" x="27" y="450">elapsed()</text>
	<text font-family="Helvetica" font-size="4" fill="#000000" xml:space="preserve" x="27" y="457">lecturaParcial()</text>
</g>
<g>
	<rect fill="#808080" stroke="none" stroke-opacity="1" x="352" y="22" width="2" height="112" />
	<rect fill="#808080" stroke="none" stroke-opacity="1" x="308" y="132" width="46" height="2" />
	<rect fill="#ffffc0" stroke="black" stroke-width="1" stroke-opacity="1" x="305" y="19" width="47" height="113" />
	<text font-family="Helvetica" font-size="4" fill="#000000" xml:space="preserve" font-weight="bold" text-anchor="middle" x="329" y="23">SistemaParticulas</text>
	<line stroke="black" stroke-opacity="1" x1="305" y1="26" x2="352" y2="26" />
	<text font-family="Helvetica" font-size="4" fill="#000000" xml:space="preserve" x="306" y="30">g</text>
	<text font-family="Helvetica" font-size="4" fill="#000000" xml:space="preserve" x="306" y="37">cantidadParticulas</text>
	<text font-family="Helvetica" font-size="4" fill="#000000" xml:space="preserve" x="306" y="44">duracion</text>
	<text font-family="Helvetica" font-size="4" fill="#000000" xml:space="preserve" x="306" y="51">distancia</text>
	<text font-family="Helvetica" font-size="4" fill="#000000" xml:space="preserve" x="306" y="58">escala</text>
	<text font-family="Helvetica" font-size="4" fill="#000000" xml:space="preserve" x="306" y="65">color</text>
	<text font-family="Helvetica" font-size="4" fill="#000000" xml:space="preserve" x="306" y="72">vectorParticulas</text>
	<text font-family="Helvetica" font-size="4" fill="#000000" xml:space="preserve" x="306" y="79">activo</text>
	<line stroke="black" stroke-opacity="1" x1="305" y1="82" x2="352" y2="82" />
	<text font-family="Helvetica" font-size="4" fill="#000000" xml:space="preserve" x="306" y="86">SistemaParticulas()</text>
	<text font-family="Helvetica" font-size="4" fill="#000000" xml:space="preserve" x="306" y="93">nuevaPartc()</text>
	<text font-family="Helvetica" font-size="4" fill="#000000" xml:space="preserve" x="306" y="100">update()</text>
	<text font-family="Helvetica" font-size="4" fill="#000000" xml:space="preserve" x="306" y="107">toggle()</text>
	<text font-family="Helvetica" font-size="4" fill="#000000" xml:space="preserve" x="306" y="114">off()</text>
	<text font-family="Helvetica" font-size="4" fill="#000000" xml:space="preserve" x="306" y="121">on()</text>
	<text font-family="Helvetica" font-size="4" fill="#000000" xml:space="preserve" x="306" y="128">draw()</text>
</g>
<g>
	<rect fill="#808080" stroke="none" stroke-opacity="1" x="189" y="451" width="2" height="60" />
	<rect fill="#808080" stroke="none" stroke-opacity="1" x="165" y="509" width="26" height="2" />
	<rect fill="#ffffc0" stroke="black" stroke-width="1" stroke-opacity="1" x="162" y="448" width="27" height="61" />
	<text font-family="Helvetica" font-size="4" fill="#000000" xml:space="preserve" text-anchor="middle" x="176" y="452">&lt;&lt;enum&gt;&gt;</text>
	<text font-family="Helvetica" font-size="4" fill="#000000" xml:space="preserve" font-weight="bold" text-anchor="middle" x="176" y="459">t_figura</text>
	<line stroke="black" stroke-opacity="1" x1="162" y1="462" x2="189" y2="462" />
	<text font-family="Helvetica" font-size="4" fill="#000000" xml:space="preserve" x="163" y="466">Redonda</text>
	<text font-family="Helvetica" font-size="4" fill="#000000" xml:space="preserve" x="163" y="473">Blanca</text>
	<text font-family="Helvetica" font-size="4" fill="#000000" xml:space="preserve" x="163" y="480">Negra</text>
	<text font-family="Helvetica" font-size="4" fill="#000000" xml:space="preserve" x="163" y="487">Corchea</text>
	<text font-family="Helvetica" font-size="4" fill="#000000" xml:space="preserve" x="163" y="494">Nulo</text>
	<text font-family="Helvetica" font-size="4" fill="#000000" xml:space="preserve" x="163" y="501">Puntillo</text>
	<line stroke="black" stroke-opacity="1" x1="162" y1="504" x2="189" y2="504" />
</g>
<g>
	<line stroke="black" stroke-opacity="1" x1="74" y1="240" x2="186" y2="220" />
	<polygon fill="#000000" stroke="black" stroke-opacity="1" points="74,240 78,233 85,237 80,244" />
</g>
<g>
	<text font-family="Helvetica" font-size="4" fill="#000000" xml:space="preserve" x="109" y="234">&lt;&lt;:scoped_ptr&gt;&gt;</text>
</g>
<g>
	<line stroke="black" stroke-opacity="1" x1="47" y1="347" x2="48" y2="389" />
</g>
<g>
	<line stroke="black" stroke-opacity="1" x1="131" y1="417" x2="136" y2="423" />
	<line stroke="black" stroke-opacity="1" x1="131" y1="417" x2="137" y2="411" />
	<line stroke="black" stroke-opacity="1" x1="213" y1="425" x2="131" y2="417" />
	<polygon fill="#000000" stroke="black" stroke-opacity="1" points="213,425 206,430 201,423 207,418" />
</g>
<g>
	<line stroke="black" stroke-opacity="1" x1="192" y1="465" x2="200" y2="465" />
	<line stroke="black" stroke-opacity="1" x1="192" y1="465" x2="192" y2="456" />
	<line stroke="black" stroke-opacity="1" x1="213" y1="448" x2="192" y2="465" />
	<polygon fill="#000000" stroke="black" stroke-opacity="1" points="213,448 212,456 203,455 204,447" />
</g>
<g>
	<line stroke="black" stroke-opacity="1" x1="327" y1="468" x2="271" y2="442" />
	<line stroke="black" stroke-opacity="1" x1="266" y1="440" x2="268" y2="447" />
	<line stroke="black" stroke-opacity="1" x1="266" y1="440" x2="273" y2="437" />
	<line stroke="black" stroke-opacity="1" x1="268" y1="447" x2="273" y2="437" />
</g>
<g>
	<line stroke="black" stroke-opacity="1" x1="186" y1="220" x2="245" y2="215" />
</g>
<g>
	<line stroke="black" stroke-opacity="1" x1="245" y1="215" x2="339" y2="216" />
</g>
<g>
	<line stroke="black" stroke-opacity="1" x1="333" y1="135" x2="327" y2="141" />
	<line stroke="black" stroke-opacity="1" x1="333" y1="135" x2="339" y2="140" />
	<line stroke="black" stroke-opacity="1" x1="339" y1="216" x2="333" y2="135" />
</g>
</svg>
